<?xml version="1.0" encoding="UTF-8" standalone="no"?>
<svg
   width="84.296898cm"
   height="44.916672cm"
   viewBox="0 0 842.96896 449.16673"
   version="1.1"
   id="svg11148"
   inkscape:version="1.4.2 (ebf0e940, 2025-05-08)"
   sodipodi:docname="openMINDS_actions_logo_dark.svg"
   inkscape:export-filename="C:\Users\ulrik\Desktop\openMINDS_logos-updated\openMINDS-logo_dark.png"
   inkscape:export-xdpi="50"
   inkscape:export-ydpi="50"
   xml:space="preserve"
   xmlns:inkscape="http://www.inkscape.org/namespaces/inkscape"
   xmlns:sodipodi="http://sodipodi.sourceforge.net/DTD/sodipodi-0.dtd"
   xmlns:xlink="http://www.w3.org/1999/xlink"
   xmlns="http://www.w3.org/2000/svg"
   xmlns:svg="http://www.w3.org/2000/svg"
   xmlns:rdf="http://www.w3.org/1999/02/22-rdf-syntax-ns#"
   xmlns:cc="http://creativecommons.org/ns#"
   xmlns:dc="http://purl.org/dc/elements/1.1/"><defs
     id="defs11142"><inkscape:path-effect
       effect="bspline"
       id="path-effect1357"
       is_visible="true"
       lpeversion="1"
       weight="33.333333"
       steps="2"
       helper_size="0"
       apply_no_weight="true"
       apply_with_weight="true"
       only_selected="false" /><inkscape:path-effect
       effect="bspline"
       id="path-effect1353"
       is_visible="true"
       lpeversion="1"
       weight="33.333333"
       steps="2"
       helper_size="0"
       apply_no_weight="true"
       apply_with_weight="true"
       only_selected="false" /><inkscape:path-effect
       effect="bspline"
       id="path-effect1349"
       is_visible="true"
       lpeversion="1"
       weight="33.333333"
       steps="2"
       helper_size="0"
       apply_no_weight="true"
       apply_with_weight="true"
       only_selected="false" /><inkscape:path-effect
       effect="bspline"
       id="path-effect1205"
       is_visible="true"
       lpeversion="1"
       weight="33.333333"
       steps="2"
       helper_size="0"
       apply_no_weight="true"
       apply_with_weight="true"
       only_selected="false" /><inkscape:path-effect
       effect="bspline"
       id="path-effect1038"
       is_visible="true"
       lpeversion="1"
       weight="33.333333"
       steps="2"
       helper_size="0"
       apply_no_weight="true"
       apply_with_weight="true"
       only_selected="false" /><inkscape:path-effect
       effect="bspline"
       id="path-effect1010"
       is_visible="true"
       lpeversion="1"
       weight="33.333333"
       steps="2"
       helper_size="0"
       apply_no_weight="true"
       apply_with_weight="true"
       only_selected="false" /><inkscape:path-effect
       effect="bspline"
       id="path-effect976"
       is_visible="true"
       lpeversion="1"
       weight="33.333333"
       steps="2"
       helper_size="0"
       apply_no_weight="true"
       apply_with_weight="true"
       only_selected="false" /><inkscape:path-effect
       effect="bspline"
       id="path-effect971"
       is_visible="true"
       lpeversion="1"
       weight="33.333333"
       steps="2"
       helper_size="0"
       apply_no_weight="true"
       apply_with_weight="true"
       only_selected="false" /><inkscape:path-effect
       effect="bspline"
       id="path-effect947"
       is_visible="true"
       lpeversion="1"
       weight="33.333333"
       steps="2"
       helper_size="0"
       apply_no_weight="true"
       apply_with_weight="true"
       only_selected="false" /><inkscape:path-effect
       effect="bspline"
       id="path-effect924"
       is_visible="true"
       lpeversion="1"
       weight="33.333333"
       steps="2"
       helper_size="0"
       apply_no_weight="true"
       apply_with_weight="true"
       only_selected="false" /><linearGradient
       gradientUnits="userSpaceOnUse"
       y2="100"
       x2="200"
       y1="100"
       x1="0.5"
       id="linear-gradient"><stop
         id="stop15253"
         stop-color="#f7db2e"
         offset="0" /><stop
         id="stop15255"
         stop-color="#82c558"
         offset="0.5" /><stop
         id="stop15257"
         stop-color="#127e7a"
         offset="1" /></linearGradient><inkscape:path-effect
       effect="bspline"
       id="path-effect8596"
       is_visible="true"
       weight="33.333333"
       steps="2"
       helper_size="0"
       apply_no_weight="true"
       apply_with_weight="true"
       only_selected="false"
       lpeversion="0" /><inkscape:path-effect
       effect="bspline"
       id="path-effect8598"
       is_visible="true"
       weight="33.333333"
       steps="2"
       helper_size="0"
       apply_no_weight="true"
       apply_with_weight="true"
       only_selected="false"
       lpeversion="0" /><inkscape:path-effect
       effect="bspline"
       id="path-effect8600"
       is_visible="true"
       weight="33.333333"
       steps="2"
       helper_size="0"
       apply_no_weight="true"
       apply_with_weight="true"
       only_selected="false"
       lpeversion="0" /><inkscape:path-effect
       effect="bspline"
       id="path-effect8602"
       is_visible="true"
       weight="33.333333"
       steps="2"
       helper_size="0"
       apply_no_weight="true"
       apply_with_weight="true"
       only_selected="false"
       lpeversion="0" /><inkscape:path-effect
       effect="bspline"
       id="path-effect8604"
       is_visible="true"
       weight="33.333333"
       steps="2"
       helper_size="0"
       apply_no_weight="true"
       apply_with_weight="true"
       only_selected="false"
       lpeversion="0" /><inkscape:path-effect
       effect="bspline"
       id="path-effect8606"
       is_visible="true"
       weight="33.333333"
       steps="2"
       helper_size="0"
       apply_no_weight="true"
       apply_with_weight="true"
       only_selected="false"
       lpeversion="0" /><inkscape:path-effect
       effect="bspline"
       id="path-effect8608"
       is_visible="true"
       weight="33.333333"
       steps="2"
       helper_size="0"
       apply_no_weight="true"
       apply_with_weight="true"
       only_selected="false"
       lpeversion="0" /><inkscape:path-effect
       effect="bspline"
       id="path-effect8610"
       is_visible="true"
       weight="33.333333"
       steps="2"
       helper_size="0"
       apply_no_weight="true"
       apply_with_weight="true"
       only_selected="false"
       lpeversion="0" /><inkscape:path-effect
       effect="bspline"
       id="path-effect8612"
       is_visible="true"
       weight="33.333333"
       steps="2"
       helper_size="0"
       apply_no_weight="true"
       apply_with_weight="true"
       only_selected="false"
       lpeversion="0" /><inkscape:path-effect
       effect="bspline"
       id="path-effect8614"
       is_visible="true"
       weight="33.333333"
       steps="2"
       helper_size="0"
       apply_no_weight="true"
       apply_with_weight="true"
       only_selected="false"
       lpeversion="0" /><inkscape:path-effect
       effect="bspline"
       id="path-effect15470"
       is_visible="true"
       weight="33.333333"
       steps="2"
       helper_size="0"
       apply_no_weight="true"
       apply_with_weight="true"
       only_selected="false"
       lpeversion="0" /><inkscape:path-effect
       effect="bspline"
       id="path-effect15468"
       is_visible="true"
       weight="33.333333"
       steps="2"
       helper_size="0"
       apply_no_weight="true"
       apply_with_weight="true"
       only_selected="false"
       lpeversion="0" /><inkscape:path-effect
       effect="bspline"
       id="path-effect15466"
       is_visible="true"
       weight="33.333333"
       steps="2"
       helper_size="0"
       apply_no_weight="true"
       apply_with_weight="true"
       only_selected="false"
       lpeversion="0" /><inkscape:path-effect
       effect="bspline"
       id="path-effect15464"
       is_visible="true"
       weight="33.333333"
       steps="2"
       helper_size="0"
       apply_no_weight="true"
       apply_with_weight="true"
       only_selected="false"
       lpeversion="0" /><inkscape:path-effect
       effect="bspline"
       id="path-effect15462"
       is_visible="true"
       weight="33.333333"
       steps="2"
       helper_size="0"
       apply_no_weight="true"
       apply_with_weight="true"
       only_selected="false"
       lpeversion="0" /><inkscape:path-effect
       effect="bspline"
       id="path-effect15460"
       is_visible="true"
       weight="33.333333"
       steps="2"
       helper_size="0"
       apply_no_weight="true"
       apply_with_weight="true"
       only_selected="false"
       lpeversion="0" /><inkscape:path-effect
       effect="bspline"
       id="path-effect15458"
       is_visible="true"
       weight="33.333333"
       steps="2"
       helper_size="0"
       apply_no_weight="true"
       apply_with_weight="true"
       only_selected="false"
       lpeversion="0" /><inkscape:path-effect
       effect="bspline"
       id="path-effect15456"
       is_visible="true"
       weight="33.333333"
       steps="2"
       helper_size="0"
       apply_no_weight="true"
       apply_with_weight="true"
       only_selected="false"
       lpeversion="0" /><inkscape:path-effect
       effect="bspline"
       id="path-effect15454"
       is_visible="true"
       weight="33.333333"
       steps="2"
       helper_size="0"
       apply_no_weight="true"
       apply_with_weight="true"
       only_selected="false"
       lpeversion="0" /><linearGradient
       inkscape:collect="always"
       xlink:href="#linear-gradient"
       id="linearGradient15576"
       gradientUnits="userSpaceOnUse"
       gradientTransform="translate(6381.8047,2289.5199)"
       x1="-6012.9951"
       y1="-2083.6816"
       x2="-6012.9951"
       y2="-2217.5669" /><inkscape:path-effect
       effect="bspline"
       id="path-effect15452"
       is_visible="true"
       weight="33.333333"
       steps="2"
       helper_size="0"
       apply_no_weight="true"
       apply_with_weight="true"
       only_selected="false"
       lpeversion="0" /></defs><sodipodi:namedview
     id="base"
     pagecolor="#727272"
     bordercolor="#666666"
     borderopacity="1.0"
     inkscape:pageopacity="0.0"
     inkscape:pageshadow="2"
     inkscape:zoom="0.62984128"
     inkscape:cx="-160.35786"
     inkscape:cy="1074.0801"
     inkscape:document-units="mm"
     inkscape:current-layer="layer1"
     inkscape:document-rotation="0"
     showgrid="false"
     inkscape:window-width="2352"
     inkscape:window-height="1142"
     inkscape:window-x="82"
     inkscape:window-y="91"
     inkscape:window-maximized="0"
     lock-margins="true"
     fit-margin-top="4"
     fit-margin-left="4"
     fit-margin-right="4"
     fit-margin-bottom="4"
     units="cm"
     showguides="true"
     inkscape:guide-bbox="true"
     inkscape:showpageshadow="2"
     inkscape:pagecheckerboard="0"
     inkscape:deskcolor="#d1d1d1"><sodipodi:guide
       position="126.55616,40.132799"
       orientation="0,-1"
       id="guide1000"
       inkscape:locked="false" /><sodipodi:guide
       position="193.8542,468.33102"
       orientation="1,0"
       id="guide1002"
       inkscape:locked="false" /><sodipodi:guide
       position="126.55616,40.132799"
       orientation="1,0"
       id="guide1004"
       inkscape:locked="false" /><sodipodi:guide
       position="128.28904,274.15782"
       orientation="0,-1"
       id="guide1032"
       inkscape:locked="false" /><sodipodi:guide
       position="128.28904,247.69949"
       orientation="0,-1"
       id="guide1040"
       inkscape:locked="false" /><sodipodi:guide
       position="187.22041,454.32635"
       orientation="1,0"
       id="guide1359"
       inkscape:locked="false" /></sodipodi:namedview><metadata
     id="metadata11145"><rdf:RDF><cc:Work
         rdf:about=""><dc:format>image/svg+xml</dc:format><dc:type
           rdf:resource="http://purl.org/dc/dcmitype/StillImage" /></cc:Work></rdf:RDF></metadata><g
     inkscape:label="Ebene 1"
     inkscape:groupmode="layer"
     id="layer1"
     transform="translate(311.115,127.11867)"><path
       sodipodi:nodetypes="cccccccccccccccccccccccscccccccc"
       inkscape:original-d="m 324.026,40.7816 v 186.3901 c 0,0 6.386,6.6721 9.578,10.0095 7.217,2.4116 14.432,4.8237 21.647,7.2369 8.221,-0.8049 16.442,-1.6091 24.662,-2.4123 3.563,-3.2899 7.126,-6.5798 10.687,-9.8684 1.421,-1.6402 2.843,-3.2806 4.265,-4.9208 1.188,0.073 2.376,0.146 3.562,0.2194 6.217,0.4697 12.443,0.9403 18.662,1.4107 3.928,-6.1398 7.856,-12.2817 11.783,-18.4209 -1.668,-6.4074 -3.336,-12.8114 -5.006,-19.2239 1.189,-0.2196 2.376,-0.4389 3.562,-0.6577 5.38,-4.2043 10.765,-8.413 16.153,-12.6237 0.183,-4.5356 0.366,-9.0652 0.548,-13.5961 -1.844,-4.6106 -5.533,-13.8338 -5.533,-13.8338 L 437.5,149.394 c 0,0 6.356,-7.7075 9.533,-11.5597 -1.644,-5.9201 -3.288,-11.8426 -4.932,-17.7631 -2.351,-1.2537 -4.701,-2.5068 -7.053,-3.7605 1.348,-7.6932 2.694,-15.3828 4.04,-23.0697 -2.105,-3.4878 -4.213,-6.9782 -6.32,-10.4664 -4.225,-1.5935 -8.451,-3.1869 -12.678,-4.7801 -2.816,-1.5667 -5.631,-3.1328 -8.447,-4.6989 -0.712,-7.5867 -1.424,-15.173 -2.136,-22.7591 -5.266,-1.874 -10.531,-3.7476 -15.797,-5.6212 -4.314,1.7139 -8.626,3.4271 -12.942,5.1423 -3.516,-2.3102 -7.033,-4.6197 -10.545,-6.9263 -2.044,-2.0858 -4.076,-4.16 -6.136,-6.2619 -4.54,-1.2937 -9.011,-2.5678 -13.523,-3.8529 -4.452,-0.195 -8.885,-0.3889 -13.345,-0.5837 -3.89,0.5467 -7.754,1.0899 -11.639,1.6365 -0.519,2.2404 -1.554,6.7123 -1.554,6.7123 z"
       inkscape:path-effect="#path-effect15452"
       inkscape:connector-curvature="0"
       id="path1190-2-8-8-7-0-8-9-2-9-5-4-17-1"
       d="m 324.026,40.7816 c 0,0 0,186.3901 0,186.3901 3.19267,3.3365 6.3852,6.67286 11.58993,9.5475 5.20473,2.87463 12.41973,5.28671 20.13794,6.09074 7.7182,0.80402 15.93921,-1.1e-4 21.83063,-2.04713 5.89141,-2.04701 9.45432,-5.33701 11.94558,-7.80116 2.49127,-2.46415 3.91314,-4.10466 5.21803,-4.88827 1.30488,-0.78361 2.49287,-0.71043 6.19437,-0.43893 3.7015,0.2715 9.9275,0.74214 15.00078,-2.09285 5.07328,-2.835 9.00177,-8.97658 10.13101,-15.24983 1.12924,-6.27324 -0.53841,-12.67733 -0.77884,-15.99337 -0.24042,-3.31604 0.9466,-3.53522 4.22953,-5.74693 3.28294,-2.2117 8.66807,-6.42023 11.45346,-10.7934 2.78539,-4.37318 2.96796,-8.90279 2.13724,-13.47352 -0.83072,-4.57073 -2.67533,-9.18268 -4.51966,-13.79395 0,0 -1.096,-1.0966 -1.096,-1.0966 3.17767,-3.85323 6.35611,-7.70741 7.12268,-12.59364 0.76656,-4.88623 -0.87782,-10.80862 -2.87529,-14.39566 -1.99747,-3.58704 -4.34753,-4.84004 -4.84983,-9.31368 -0.50229,-4.47365 0.8443,-12.16314 0.46448,-17.750247 -0.37982,-5.587103 -2.48755,-9.077665 -5.65338,-11.618446 -3.16583,-2.54078 -7.39184,-4.134151 -10.9133,-5.714257 -3.52145,-1.580106 -6.33652,-3.146076 -8.10046,-7.722621 -1.76393,-4.576546 -2.47592,-12.162847 -5.46494,-16.892832 -2.98901,-4.729986 -8.25404,-6.603493 -13.04397,-6.683369 -4.78992,-0.07988 -9.10189,1.633416 -13.01812,1.336055 -3.91623,-0.297361 -7.43296,-2.607266 -10.21088,-4.803569 -2.77792,-2.196302 -4.81017,-4.270254 -8.11011,-5.968057 -3.29993,-1.697803 -7.77099,-2.971675 -12.25294,-3.71179 -4.48195,-0.740115 -8.91495,-0.934011 -13.08993,-0.758075 -4.17498,0.175936 -8.03896,0.719231 -10.24084,2.112594 -2.20187,1.393363 -2.71917,3.627761 -3.23717,5.865194 z"
       style="fill:url(#linearGradient15576);fill-opacity:1;stroke:none;stroke-width:14;stroke-linecap:round;stroke-linejoin:round;stroke-miterlimit:4;stroke-dasharray:none;stroke-opacity:1" /><path
       style="fill:none;stroke:#ffffff;stroke-width:15;stroke-linecap:round;stroke-linejoin:round;stroke-miterlimit:4;stroke-dasharray:none;stroke-opacity:1"
       d="M 275.234,35.619131 V 242.63894 L 165.87001,34.963932 V 241.98311"
       id="path1486-5-5-5-1-5-9-0-19-4-0-4"
       inkscape:connector-curvature="0"
       sodipodi:nodetypes="cccc"
       inkscape:export-xdpi="50"
       inkscape:export-ydpi="50" /><path
       style="fill:none;stroke:#ffffff;stroke-width:15;stroke-linecap:round;stroke-linejoin:round;stroke-miterlimit:4;stroke-dasharray:none;stroke-opacity:1"
       d="M -109.331,274.54754 V 34.963231 L -20.85,104.03172 67.634,34.963231 V 241.98311"
       id="path1908-1-5-79-2-0-88-5-5-0-8-1"
       inkscape:connector-curvature="0"
       sodipodi:nodetypes="ccccc"
       inkscape:export-xdpi="50"
       inkscape:export-ydpi="50" /><path
       sodipodi:nodetypes="sssss"
       inkscape:connector-curvature="0"
       id="path1910-6-6-8-8-7-5-89-7-0-2-7-2"
       d="m -182.681,-44.735471 c 0,17.803702 -18.118,34.882302 -40.467,34.882302 -22.35,0 -40.467,-17.0786 -40.467,-34.882302 0,-17.803799 18.117,-34.882399 40.467,-34.882399 22.349,0 40.467,17.0786 40.467,34.882399 z"
       style="fill:none;fill-opacity:1;stroke:#ffffff;stroke-width:15;stroke-linecap:round;stroke-linejoin:round;stroke-miterlimit:4;stroke-dasharray:none;stroke-dashoffset:0;stroke-opacity:1" /><path
       style="fill:none;stroke:#ffffff;stroke-width:15;stroke-linecap:round;stroke-linejoin:round;stroke-miterlimit:4;stroke-dasharray:none;stroke-opacity:1"
       d="M -162.683,40.522532 V -9.853069 m 0,-69.710701 36.994,-0.054 c 22.349,-0.04 40.467,17.0787 40.467,34.8825 0,17.803601 -18.118,34.882101 -40.467,34.882101 h -36.994 z"
       id="path1942-5-1-9-0-95-4-2-4-4-3-5"
       inkscape:connector-curvature="0"
       sodipodi:nodetypes="cccssscc" /><g
       id="g1996-8-1-58-6-6-47-3-2-2-7-0"
       transform="matrix(1.5113121,0,0,1.5113121,105.30509,-57.777352)"
       style="stroke:#ffffff;stroke-width:9.92515;stroke-miterlimit:4;stroke-dasharray:none;stroke-opacity:1"
       inkscape:export-xdpi="50"
       inkscape:export-ydpi="50"><path
         sodipodi:nodetypes="ccccscc"
         inkscape:connector-curvature="0"
         id="path1910-6-3-1-0-87-3-4-3-0-1-14-14-7"
         d="m -64.944758,22.900443 c -5.800014,5.679036 -14.834199,8.70694 -21.116025,8.80986 -14.788057,0 -26.776137,-11.300517 -26.776137,-23.0808293 m 0,0 c 0,-11.7803118 11.98808,-23.0808287 26.776137,-23.0808297 14.788054,0 26.77614,11.300517 26.77614,23.0808297 z"
         style="opacity:1;fill:none;fill-opacity:1;stroke:#ffffff;stroke-width:9.92515;stroke-linecap:round;stroke-linejoin:round;stroke-miterlimit:4;stroke-dasharray:none;stroke-dashoffset:0;stroke-opacity:1" /></g><g
       id="g2033-8-98-9-6-3-4-7-4-9-6-6"
       transform="matrix(1.5113121,0,0,1.5113121,85.366089,-66.983263)"
       style="stroke:#ffffff;stroke-width:9.92515;stroke-miterlimit:4;stroke-dasharray:none;stroke-opacity:1"
       inkscape:export-xdpi="50"
       inkscape:export-ydpi="50"><path
         sodipodi:nodetypes="cssc"
         inkscape:connector-curvature="0"
         id="path1910-6-7-3-5-2-3-7-50-5-5-1-0-8"
         d="m -32.785292,14.755479 c 0,-11.7803139 11.988086,-23.080635 26.77614,-23.080635 14.788054,0 26.776152,11.3000415 26.776152,23.080355 V 204.43589"
         style="opacity:1;fill:none;fill-opacity:1;stroke:#ffffff;stroke-width:9.92515;stroke-linecap:round;stroke-linejoin:round;stroke-miterlimit:4;stroke-dasharray:none;stroke-dashoffset:0;stroke-opacity:1" /><path
         sodipodi:nodetypes="ccc"
         inkscape:connector-curvature="0"
         id="path2028-2-0-71-7-8-4-8-2-5-1-7"
         d="m -32.785042,-8.2893725 -2.5e-4,23.0448515 2.5e-4,23.116521"
         style="fill:none;stroke:#ffffff;stroke-width:9.92515;stroke-linecap:round;stroke-linejoin:round;stroke-miterlimit:4;stroke-dasharray:none;stroke-opacity:1" /></g><path
       style="fill:none;fill-opacity:1;stroke:#ffffff;stroke-width:15;stroke-linecap:round;stroke-linejoin:round;stroke-miterlimit:4;stroke-dasharray:none;stroke-dashoffset:0;stroke-opacity:1"
       d="M -22.967,274.54804 H 237.56 304.25501 364.506 c 25.37302,0 50.26798,-2.17512 71.13398,-14.42051 15.939,-9.35389 28.364,-25.28958 36.113,-42.06689 11.334,-24.53831 12.601,-53.07411 12.601,-80.10361 0,-27.0296 -1.267,-55.565295 -12.601,-80.103599 -7.749,-16.777301 -20.588,-32.041299 -36.113,-42.066901 -19.865,-12.828799 -66.16597,-13.688298 -86.25097,-14.419098 -20.46902,-1.811301 -24.90499,-1.878201 -33.342,-9.818601 -7.85,-7.3875 -10.99701,-19.630699 -10.99701,-30.4098 0,-10.779101 3.46901,-22.694601 10.99701,-30.409901 6.633,-6.7985 17.05099,-10.3478 26.54901,-10.3478 h 93.82396 c 9.498,0 19.916,3.5492 26.549,10.3478 7.527,7.7153 10.996,22.150601 10.996,30.409901"
       id="path1910-6-0-3-9-8-3-61-3-0-2-0-1-4"
       inkscape:connector-curvature="0"
       sodipodi:nodetypes="cccsaaaascaaassac" /><g
       id="g1370"><path
         sodipodi:nodetypes="ccaccccccccccccccccccccsccccccccc"
         inkscape:original-d="m 324.026,58.175 v 153.4443 c 0,0 0,13.1241 0,19.6865 3.193,1.9582 6.386,3.9167 9.578,5.8754 7.217,2.4116 14.433,4.8237 21.648,7.2369 8.221,-0.8049 16.442,-1.6091 24.661,-2.4123 3.563,-3.2899 7.126,-6.5798 10.687,-9.8684 1.422,-1.6402 2.844,-3.2806 4.265,-4.9208 1.188,0.073 2.376,0.146 3.562,0.2194 6.218,0.4697 12.443,0.9403 18.663,1.4107 3.927,-6.1398 7.856,-12.2817 11.783,-18.4209 -1.669,-6.4074 -3.336,-12.8114 -5.006,-19.2239 1.188,-0.2196 2.376,-0.4389 3.562,-0.6577 5.38,-4.2043 10.765,-8.413 16.153,-12.6237 0.183,-4.5356 0.365,-9.0652 0.548,-13.5961 -2.209,-4.9761 -6.63,-14.9304 -6.63,-14.9304 0,0 6.357,-7.7075 9.533,-11.5597 -1.643,-5.9201 -3.288,-11.8426 -4.932,-17.7631 -2.35,-1.2537 -4.701,-2.5068 -7.053,-3.7605 1.348,-7.6932 2.695,-15.3828 4.041,-23.0697 -2.106,-3.4878 -4.213,-6.9782 -6.32,-10.4664 -4.226,-1.5935 -8.452,-3.1869 -12.679,-4.7801 -2.815,-1.5667 -5.631,-3.1328 -8.447,-4.6989 -0.711,-7.5867 -1.423,-15.173 -2.136,-22.7591 -5.265,-1.874 -10.531,-3.7476 -15.797,-5.6212 -4.314,1.7139 -8.625,3.4271 -12.941,5.1423 -3.517,-2.3102 -7.033,-4.6197 -10.546,-6.9263 -2.009,-1.6728 -4.007,-3.3361 -6.032,-5.0217 -4.566,-1.4229 -9.065,-2.8243 -13.603,-4.2378 -4.46,-0.1878 -8.901,-0.3745 -13.369,-0.562 -3.889,0.8397 -7.758,1.6752 -11.638,2.5135 -0.518,2.0427 -1.555,6.128 -1.555,6.128 z"
         inkscape:path-effect="#path-effect15454"
         inkscape:connector-curvature="0"
         id="path1190-2-8-8-7-0-8-9-8-3-3-1-4"
         d="m 324.026,58.175 c 0,0 0,153.4443 0,153.4443 0,6.56217 0,13.1241 1.5964,17.38457 1.59639,4.26047 4.78931,6.2191 9.9938,8.40448 5.20449,2.18538 12.42043,4.59766 20.13865,5.40162 7.71822,0.80396 15.93922,-2.1e-4 21.83014,-2.04719 5.89092,-2.04698 9.45383,-5.33698 11.94531,-7.80138 2.49148,-2.46439 3.91335,-4.1049 5.21802,-4.88826 1.30467,-0.78337 2.49266,-0.71019 6.19466,-0.43866 3.702,0.27152 9.927,0.74206 15.00063,-2.09268 5.07364,-2.83474 9.00242,-8.97678 10.13163,-15.25015 1.12921,-6.27337 -0.53838,-12.67721 -0.77929,-15.99316 -0.24091,-3.31595 0.94708,-3.53531 4.23001,-5.74702 3.28294,-2.2117 8.66807,-6.42023 11.45346,-10.7934 2.78539,-4.37318 2.96796,-8.90275 1.95448,-13.65613 -1.01348,-4.75338 -3.2239,-9.73114 -5.4339,-14.70794 3.17767,-3.85323 6.35652,-7.7079 7.12291,-12.59375 0.7664,-4.88586 -0.87805,-10.80851 -2.87513,-14.39535 -1.99708,-3.58683 -4.34792,-4.84024 -4.85005,-9.31386 -0.50214,-4.47361 0.84481,-12.16322 0.46502,-17.750516 -0.3798,-5.587296 -2.48726,-9.077416 -5.65355,-11.618307 -3.16629,-2.54089 -7.39234,-4.134151 -10.91343,-5.71399 -3.5211,-1.579838 -6.33693,-3.146233 -8.10086,-7.722732 -1.76393,-4.576499 -2.47593,-12.1628 -5.4645,-16.892674 -2.98857,-4.729874 -8.25449,-6.603697 -13.04439,-6.683516 -4.78991,-0.07982 -9.10096,1.633244 -13.01757,1.335788 -3.91661,-0.297456 -7.43274,-2.60675 -10.19367,-4.596587 -2.76092,-1.989836 -4.75889,-3.653169 -8.0544,-5.207289 -3.2955,-1.554121 -7.79445,-2.955696 -12.29342,-3.756301 -4.49897,-0.800604 -8.93997,-0.987293 -13.11844,-0.661249 -4.17847,0.326044 -8.04745,1.161641 -10.24665,2.601946 -2.19919,1.440306 -2.71754,3.48302 -3.23587,5.525687 z"
         style="fill:none;stroke:#ffffff;stroke-width:14;stroke-linecap:round;stroke-linejoin:round;stroke-miterlimit:4;stroke-dasharray:none;stroke-opacity:1" /><path
         sodipodi:nodetypes="ccccc"
         inkscape:original-d="m 389.957,51.8413 c -2.396,0.5061 -4.788,1.0116 -7.188,1.5191 -4.642,0.9948 -9.268,1.9863 -13.903,2.98 -1.832,2.7714 -3.664,5.5413 -5.497,8.3135 0.08,0.8192 0.165,1.6384 0.247,2.4576"
         inkscape:path-effect="#path-effect15456"
         inkscape:connector-curvature="0"
         id="path1198-1-7-1-8-23-1-32-8-0-1-3-3"
         d="m 389.957,51.8413 c -2.39595,0.506355 -4.78794,1.011876 -8.30895,1.762972 -3.52101,0.751097 -8.147,1.742642 -11.3807,3.624973 -3.23369,1.882331 -5.06534,4.652463 -5.94069,6.448043 -0.87535,1.79558 -0.79299,2.615045 -0.71066,3.434212"
         style="fill:none;stroke:#ffffff;stroke-width:4.06032;stroke-linecap:round;stroke-linejoin:round;stroke-miterlimit:4;stroke-dasharray:none;stroke-opacity:1" /><path
         sodipodi:nodetypes="ccc"
         inkscape:original-d="m 326.434,96.9625 c 3.631,-4.2541 7.261,-8.5073 10.891,-12.76 5.947,1.6768 11.895,3.3543 17.841,5.0315"
         inkscape:path-effect="#path-effect15458"
         inkscape:connector-curvature="0"
         id="path1202-4-02-6-4-91-82-9-27-9-0-8-5"
         d="m 326.434,96.9625 c 3.63099,-4.254106 7.26112,-8.507198 12.04951,-9.795029 4.78839,-1.287831 10.73641,0.389621 16.68249,2.066529"
         style="fill:none;stroke:#ffffff;stroke-width:4.06032;stroke-linecap:round;stroke-linejoin:round;stroke-miterlimit:4;stroke-dasharray:none;stroke-opacity:1" /><path
         sodipodi:nodetypes="cccccsc"
         inkscape:original-d="m 427.183,85.9771 c -4.297,-2.0034 -8.592,-4.0059 -12.889,-6.0087 -2.701,-0.6154 -5.4,-1.2305 -8.1,-1.8453 -4.995,0.1542 -9.991,0.3087 -14.987,0.4634 -3.04,3.403 -6.081,6.8059 -9.123,10.2099 -1.014,3.6097 -2.029,7.2188 -3.044,10.8292 0.452,1.9219 0.905,3.8439 1.356,5.7659"
         inkscape:path-effect="#path-effect15460"
         inkscape:connector-curvature="0"
         id="path1206-3-4-5-1-1-2-5-3-2-9-9-1"
         d="m 427.183,85.9771 c -4.29707,-2.003245 -8.59216,-4.005563 -12.09109,-5.314797 -3.49893,-1.309234 -6.19797,-1.924118 -10.04544,-2.154437 -3.84746,-0.23032 -8.84346,-0.07584 -12.86167,1.702714 -4.01821,1.778556 -7.05901,5.181634 -9.08721,8.688491 -2.0282,3.506858 -3.04273,7.116091 -3.32417,9.882262 -0.28143,2.766167 0.17062,4.688387 0.62258,6.610167"
         style="fill:none;stroke:#ffffff;stroke-width:4.06032;stroke-linecap:round;stroke-linejoin:round;stroke-miterlimit:4;stroke-dasharray:none;stroke-opacity:1" /><path
         sodipodi:nodetypes="ccccc"
         inkscape:original-d="m 435.413,144.1919 c -2.295,2.6262 -4.589,5.251 -6.885,7.8788 -2.096,1.6977 -4.19,3.394 -6.286,5.0913 -4.634,1.4865 -9.268,2.9732 -13.904,4.4604 -1.352,-0.024 -2.705,-0.048 -4.058,-0.072"
         inkscape:path-effect="#path-effect15462"
         inkscape:connector-curvature="0"
         id="path1210-3-03-6-6-0-1-82-6-9-0-0-5"
         d="m 435.413,144.1919 c -2.29497,2.62623 -4.58881,5.25117 -6.78492,7.41382 -2.19611,2.16264 -4.29025,3.85877 -7.65515,5.45082 -3.3649,1.59204 -7.99894,3.07863 -10.99293,3.81025 -2.994,0.73162 -4.347,0.70762 -5.7,0.68361"
         style="fill:none;stroke:#ffffff;stroke-width:4.06032;stroke-linecap:round;stroke-linejoin:round;stroke-miterlimit:4;stroke-dasharray:none;stroke-opacity:1" /><path
         sodipodi:nodetypes="cccccc"
         inkscape:original-d="m 355.78,220.2149 c -0.162,-1.1655 -0.325,-2.331 -0.489,-3.4967 1.078,-3.8091 2.156,-7.6178 3.233,-11.4262 3.835,-2.7983 7.668,-5.5957 11.502,-8.3926 4.623,-1.0833 9.247,-2.1664 13.869,-3.2488 2.368,0.089 4.737,0.18 7.104,0.2708"
         inkscape:path-effect="#path-effect15464"
         inkscape:connector-curvature="0"
         id="path1214-8-85-3-2-0-9-2-1-9-5-7-6"
         d="m 355.78,220.2149 c -0.16297,-1.16536 -0.32596,-2.33087 0.13141,-4.81836 0.45738,-2.4875 1.53506,-6.29629 3.99133,-9.59955 2.45628,-3.30327 6.28956,-6.10028 10.51795,-8.04041 4.22839,-1.94013 8.85238,-3.0233 12.34732,-3.51951 3.49494,-0.49621 5.86397,-0.4059 8.23099,-0.31567"
         style="fill:none;stroke:#ffffff;stroke-width:4.06032;stroke-linecap:round;stroke-linejoin:round;stroke-miterlimit:4;stroke-dasharray:none;stroke-opacity:1" /><path
         inkscape:original-d="m 378.144,194.4628 c -0.676,-4.9638 -1.352,-10.1077 -2.029,-15.1607 -2.593,-3.3392 -5.187,-6.6785 -7.781,-10.017 -3.946,-2.0761 -7.893,-4.1517 -11.84,-6.2267 -4.059,-0.3616 -8.118,-0.7226 -12.178,-1.0829"
         inkscape:path-effect="#path-effect15466"
         inkscape:connector-curvature="0"
         id="path1218-5-7-6-4-0-5-8-4-5-2-30-2"
         d="m 378.144,194.4628 c -0.66453,-4.96534 -1.35273,-10.1076 -2.98762,-14.30355 -1.63489,-4.19595 -4.22883,-7.5353 -7.49879,-10.24243 -3.26995,-2.70713 -7.2169,-4.78284 -11.21977,-6.0011 -4.00288,-1.21826 -8.06188,-1.5792 -12.12182,-1.94022"
         style="fill:none;stroke:#ffffff;stroke-width:4.06032;stroke-linecap:round;stroke-linejoin:round;stroke-miterlimit:4;stroke-dasharray:none;stroke-opacity:1" /><path
         inkscape:original-d="m 350.301,123.8886 c 5.752,2.2555 11.728,4.5115 17.591,6.7682 6.315,0.1799 12.63,0.3604 18.944,0.5414 4.511,-3.0685 9.022,-6.137 13.531,-9.2047 1.918,-4.3315 3.835,-8.6638 5.751,-12.995 0.339,-1.6246 0.677,-3.2492 1.015,-4.8731"
         inkscape:path-effect="#path-effect15468"
         inkscape:connector-curvature="0"
         id="path1222-8-3-25-7-6-2-7-0-3-0-5-5"
         d="m 350.301,123.8886 c 5.76621,2.21857 11.7277,4.51228 17.81684,5.73048 6.08914,1.2182 12.40414,1.39867 17.81661,-0.0454 5.41246,-1.44409 9.92338,-4.51272 13.13651,-8.21239 3.21314,-3.69967 5.13038,-8.03186 6.25791,-11.00968 1.12754,-2.97781 1.4659,-4.60234 1.80413,-6.22619"
         style="fill:none;stroke:#ffffff;stroke-width:4.06032;stroke-linecap:round;stroke-linejoin:round;stroke-miterlimit:4;stroke-dasharray:none;stroke-opacity:1" /><path
         sodipodi:nodetypes="ccccc"
         inkscape:original-d="m 374.996,130.6568 c -0.265,3.27 -0.53,6.54 -0.796,9.8119 2.295,2.0755 4.589,4.1506 6.883,6.2267 3.61,1.241 7.219,2.4825 10.827,3.7246 2.03,-6e-4 4.06,-6e-4 6.089,0"
         inkscape:path-effect="#path-effect15470"
         inkscape:connector-curvature="0"
         id="path1226-7-53-75-1-6-4-59-8-7-0-8-0"
         d="m 374.996,130.6568 c -0.26528,3.26998 -0.53056,6.53995 0.48405,9.21386 1.01462,2.67391 3.30853,4.7491 6.26061,6.40781 2.95207,1.65871 6.56106,2.90024 9.3802,3.52089 C 393.94,150.42 395.97,150.42 397.999,150.42"
         style="fill:none;stroke:#ffffff;stroke-width:4.06032;stroke-linecap:round;stroke-linejoin:round;stroke-miterlimit:4;stroke-dasharray:none;stroke-opacity:1" /></g><path
       style="fill:#ffffff;stroke-width:0.292005"
       d="m -269.93346,111.03815 c -14.96009,-0.22775 -30.0259,8.82133 -35.73114,22.85481 -2.6185,6.02277 -2.96033,12.85797 -1.90946,19.27536 2.639,13.37651 13.70535,24.18916 26.72891,27.6639 1.18417,0.60053 3.72916,0.11668 3.23586,2.01271 0.18587,17.60715 8e-4,35.22242 0.46412,52.82428 0.45556,5.0624 3.01066,9.76929 6.11328,13.70766 5.81952,7.20043 15.03656,10.81794 24.11004,11.32565 1.16724,0.3029 0.81993,2.29976 1.40497,3.32989 4.27639,13.39522 20.30193,20.88777 33.51774,16.78281 8.13602,-2.18297 15.44592,-8.09543 18.17014,-16.21888 2.31204,-7.08787 1.46094,-15.3258 -3.06291,-21.38349 -4.19402,-6.09336 -11.16078,-10.08131 -18.42022,-11.15777 -5.03802,-0.16211 -10.31294,-0.48612 -15.00115,1.7372 -7.99869,3.17153 -14.41429,10.33193 -16.01747,18.87217 -0.97076,0.57537 -2.75189,0.0758 -4.0601,0.0277 -8.18438,-1.24299 -15.66851,-7.11272 -18.14773,-15.08988 -1.30881,-3.19473 -0.41525,-6.75941 -0.6998,-10.12621 -0.0438,-10.27604 -0.088,-20.55212 -0.13217,-30.82819 4.80343,4.28165 11.06124,6.70547 17.47634,6.94767 1.83184,0.11043 3.66687,0.15584 5.50017,0.23725 1.50536,8.49667 7.70537,15.78456 15.68737,18.94517 11.78794,5.03955 26.95889,1.17689 34.16608,-9.62842 1.94972,-2.82602 3.10878,-6.11045 3.76468,-9.46161 5.19582,0.0501 10.39163,0.10049 15.58744,0.15113 1.48335,8.15986 7.35397,15.20576 14.84635,18.60534 10.742,4.93141 24.62366,2.65549 32.56898,-6.31036 6.40893,-6.55503 8.25386,-16.95821 4.57683,-25.33878 -2.6123,-6.34299 -8.01349,-11.25905 -14.36182,-13.73333 -5.5923,-2.49407 -12.04635,-2.58133 -17.94971,-1.27751 -9.38459,2.32502 -17.57899,9.86866 -19.49882,19.51447 -0.58877,1.56393 -3.36155,0.34624 -4.85365,0.75965 -3.64176,0.0355 -7.28353,0.0705 -10.92529,0.1057 -1.34949,-6.96918 -5.57349,-13.40715 -11.77826,-16.97501 -10.68382,-6.87906 -25.92233,-5.29764 -34.87894,3.74664 -3.61328,3.50615 -5.96289,8.16636 -6.95067,13.08123 -6.25131,0.57592 -13.14508,-0.66217 -17.71017,-5.23668 -2.2992,-2.31714 -4.09867,-5.12879 -4.81579,-8.34721 12.50045,-0.31925 25.01675,-6.33968 32.05861,-16.84917 5.39926,-7.72591 7.15652,-17.71541 4.94723,-26.85566 -3.09956,-12.85212 -14.05597,-22.90721 -26.64859,-26.30238 -3.68516,-1.13232 -7.53276,-1.44617 -11.37128,-1.38783 z m -0.36101,7.54877 c 16.17095,-1.1391 32.44376,12.96129 31.15973,29.63049 -0.5732,11.56557 -9.50532,21.61725 -20.3976,25.00907 -10.1846,3.34854 -22.05147,1.42899 -30.30132,-5.56331 -6.19013,-5.06098 -10.37563,-12.74718 -10.14144,-20.80773 -0.45346,-10.55672 6.60797,-20.30426 15.83339,-24.92092 4.30882,-2.13109 9.03428,-3.52171 13.84724,-3.3476 z m 50.9958,63.92612 c 7.16169,-0.2789 13.96306,4.34007 17.18319,10.6131 2.64385,5.85944 1.61126,13.18847 -2.85217,17.9166 -4.17253,4.77766 -10.70094,6.85538 -16.86838,6.30606 -7.7699,-0.70483 -15.12773,-6.75217 -16.51249,-14.57 -0.9363,-5.59094 1.12869,-11.513 5.47508,-15.25378 3.67012,-3.36915 8.60989,-5.17038 13.57477,-5.01198 z m 68.67974,0.045 c 5.19292,-0.27519 10.46108,1.72599 14.00365,5.57776 3.66473,3.31179 5.63721,8.24982 5.08838,13.15652 -0.41685,6.27888 -4.65939,11.79335 -10.38723,14.25937 -5.89997,2.85901 -13.26187,2.51476 -18.82822,-1.03457 -7.13551,-3.90845 -10.73383,-13.43025 -7.27743,-20.9246 2.83645,-6.65531 10.17181,-11.34862 17.40085,-11.03448 z m -69.0744,56.78001 c 8.62409,-0.27138 17.47891,6.07772 18.82971,14.78955 0.90573,5.2829 -1.00913,10.80513 -4.82092,14.48215 -6.4272,6.72507 -17.60441,7.53986 -25.16655,2.27161 -6.07045,-3.94735 -9.31934,-11.94322 -6.96703,-18.92382 2.39785,-7.68713 10.24337,-12.69895 18.12479,-12.61949 z"
       id="path1" /><path
       style="fill:#ffffff;stroke-width:0.292005"
       d="m -277.75198,128.13694 c -4.21457,-0.0734 -8.04797,4.0291 -7.31094,8.24684 0.12139,7.83201 -0.25279,15.68718 0.22185,23.50577 0.9312,3.70769 5.29694,6.06298 8.9432,5.3245 3.78693,-1.25486 7.11554,-3.63519 10.65864,-5.4407 4.52962,-2.69685 9.33314,-5.03643 13.55319,-8.20023 3.18187,-3.11587 2.2087,-9.14123 -1.91715,-10.95222 -6.88123,-4.15124 -13.7132,-8.44571 -20.86887,-12.10014 -1.05718,-0.32654 -2.17892,-0.40653 -3.27992,-0.38382 z m 1.94708,8.31984 c 5.83485,3.43789 11.85065,6.61297 17.42843,10.46139 -6.11162,3.58148 -12.25739,7.10655 -18.44874,10.54865 -0.194,-7.21805 -0.087,-14.44035 -0.11634,-21.66021 0.37888,0.21672 0.75776,0.43345 1.13665,0.65017 z"
       id="path2" /><path
       style="fill:#ffffff;stroke-width:0.228762"
       d="m -150.37801,231.79126 c -10.44689,-0.19285 -20.98803,5.96202 -25.10262,15.718 -0.78478,1.76011 -1.27748,3.62797 -1.73985,5.49299 -2.43604,0.24976 -5.72205,-0.41696 -7.28285,2.02043 -1.67585,2.19938 0.26408,5.55808 2.92316,5.56596 1.45619,0.13555 2.92154,0.0587 4.38159,0.0802 1.41933,7.81466 6.77111,14.66657 13.88125,18.14314 4.95733,2.46944 10.62213,3.56399 16.1335,2.86322 9.40035,-0.82328 18.33796,-6.88311 22.00228,-15.67712 3.89902,-8.5439 1.62893,-19.20724 -4.9093,-25.82899 -5.20499,-5.43875 -12.7765,-8.49887 -20.28716,-8.37788 z m -0.32661,7.6032 c 8.34118,-0.43614 16.82978,5.32204 18.85813,13.53228 0.39912,2.51269 0.47091,5.13021 0.0559,7.64209 -0.90328,3.72168 -3.20485,6.92658 -6.12331,9.33508 -3.60995,3.1465 -8.48163,4.60237 -13.2187,4.33165 -8.20159,0.0365 -16.18669,-6.0625 -17.93013,-14.17968 -0.42875,-3.99166 -0.1894,-8.28736 2.06511,-11.70929 3.42746,-5.49617 9.81877,-9.08426 16.29305,-8.95213 z"
       id="path9" /><path
       style="fill:#ffffff;stroke-width:0.228762"
       d="m -212.10045,253.10276 c -2.52619,0.0122 -4.77398,2.81107 -3.5047,5.21195 0.87501,1.94699 3.24085,2.76061 5.18289,1.99139 2.35875,-0.68967 3.49093,-4.05506 1.62501,-5.85846 -0.81112,-0.93671 -2.07221,-1.43134 -3.3032,-1.34488 z"
       id="path10" /><path
       style="fill:#ffffff;stroke-width:0.228762"
       d="m -227.4293,253.05006 c -2.31592,0.0749 -4.62548,2.32658 -3.73927,4.74056 0.67409,2.50127 3.85505,3.57362 5.97775,2.17948 2.55274,-1.14771 2.46761,-5.33225 -0.13405,-6.3763 -0.64687,-0.33483 -1.36955,-0.56414 -2.10443,-0.54374 z"
       id="path11" /><path
       style="fill:#ffffff;stroke-width:0.228762"
       d="m -212.163,191.31779 c -2.40842,0.20746 -3.84551,2.54664 -5.61486,3.90552 -1.92974,1.79268 -3.85906,3.58582 -5.7875,5.3799 -1.86987,-1.59358 -3.83725,-4.39946 -6.66359,-3.70713 -2.22986,0.38912 -3.90911,2.91412 -2.82512,5.04931 1.72548,2.59252 4.34034,4.46506 6.64661,6.51616 1.61433,1.62671 4.50365,1.52516 5.98043,-0.24262 4.19351,-3.74735 8.46995,-7.44974 12.31071,-11.55695 1.07169,-2.12738 -0.36821,-4.90225 -2.73487,-5.23563 -0.42948,-0.0965 -0.87223,-0.13533 -1.31181,-0.10856 z"
       id="path12" /><path
       style="fill:#ffffff;stroke-width:0.228762"
       d="m -142.70554,191.31197 c -2.42068,0.10213 -3.85074,2.42549 -5.64934,3.72954 -2.00909,1.81346 -3.98041,3.66832 -5.9724,5.50048 -1.93575,-1.54345 -3.92516,-4.28435 -6.75787,-3.61731 -2.77261,0.42704 -4.21193,4.43273 -1.86584,6.23914 2.25658,2.16003 4.41352,4.54306 7.05544,6.22393 1.68502,0.6328 3.58713,0.0713 4.75843,-1.26892 4.06274,-3.61608 8.28159,-7.11959 11.88714,-11.20306 2.1261,-2.33029 -0.73294,-5.87026 -3.45556,-5.6038 z"
       id="path13" /></g></svg>
